# xmcd CD Database Entry
#
# Track frame offsets:
# 151
# 5402
# 52383
# 76118
# 113575
# 150808
# 187291
# 220930
# 287473
#
# Disc length: 4006 seconds
#
# Revision: 3
# Processed by: cddbd v1.5.2PL0 Copyright (c) Steve Scherf et al.
# Submitted via: tcd 2.0b
#
DISCID=700fa409
DTITLE=N'DANA/N'DANA
DYEAR=1900
DGENRE=
TTITLE0=ELEGBA
TTITLE1=SHANGO
TTITLE2=OCHOOSI
TTITLE3=ママイェミ
TTITLE4=太陽の下で
TTITLE5=カホンガーナ
TTITLE6=つちのうえ
TTITLE7=YEMOJAH
TTITLE8=ELEGBA
EXTD=\t
EXTT0=
EXTT1=\t
EXTT2=
EXTT3=
EXTT4=
EXTT5=
EXTT6=
EXTT7=
EXTT8=
PLAYORDER=
